<svg aria-roledescription="er" role="graphics-document document" viewBox="0 0 614.3475341796875 566" style="max-width: 100%; background: rgb(0, 21, 71);" xmlns="http://www.w3.org/2000/svg" width="100%" id="graph-div" height="100%" xmlns:xlink="http://www.w3.org/1999/xlink"><style>@import url("https://cdnjs.cloudflare.com/ajax/libs/font-awesome/6.2.0/css/all.min.css");'</style><style>#graph-div{font-family:"trebuchet ms",verdana,arial,sans-serif;font-size:12px;fill:#333;}#graph-div .error-icon{fill:hsl(60, 90%, 100%);}#graph-div .error-text{fill:rgb(0, 0, 0);stroke:rgb(0, 0, 0);}#graph-div .edge-thickness-normal{stroke-width:2px;}#graph-div .edge-thickness-thick{stroke-width:3.5px;}#graph-div .edge-pattern-solid{stroke-dasharray:0;}#graph-div .edge-pattern-dashed{stroke-dasharray:3;}#graph-div .edge-pattern-dotted{stroke-dasharray:2;}#graph-div .marker{fill:#0b0b0b;stroke:#0b0b0b;}#graph-div .marker.cross{stroke:#0b0b0b;}#graph-div svg{font-family:"trebuchet ms",verdana,arial,sans-serif;font-size:12px;}#graph-div .entityBox{fill:#ECECFE;stroke:#BCBCFB;}#graph-div .attributeBoxOdd{fill:#ffffff;stroke:#BCBCFB;}#graph-div .attributeBoxEven{fill:#f2f2f2;stroke:#BCBCFB;}#graph-div .relationshipLabelBox{fill:hsl(60, 90%, 100%);opacity:0.7;background-color:hsl(60, 90%, 100%);}#graph-div .relationshipLabelBox rect{opacity:0.5;}#graph-div .relationshipLine{stroke:#0b0b0b;}#graph-div .entityTitleText{text-anchor:middle;font-size:18px;fill:#333;}#graph-div #MD_PARENT_START{fill:#f5f5f5!important;stroke:#0b0b0b!important;stroke-width:1;}#graph-div #MD_PARENT_END{fill:#f5f5f5!important;stroke:#0b0b0b!important;stroke-width:1;}#graph-div :root{--mermaid-font-family:"trebuchet ms",verdana,arial,sans-serif;}</style><g></g><defs><marker orient="auto" markerHeight="240" markerWidth="190" refY="7" refX="0" id="MD_PARENT_START"><path d="M 18,7 L9,13 L1,7 L9,1 Z"></path></marker></defs><defs><marker orient="auto" markerHeight="28" markerWidth="20" refY="7" refX="19" id="MD_PARENT_END"><path d="M 18,7 L9,13 L1,7 L9,1 Z"></path></marker></defs><defs><marker orient="auto" markerHeight="18" markerWidth="18" refY="9" refX="0" id="ONLY_ONE_START"><path d="M9,0 L9,18 M15,0 L15,18" fill="none" stroke="gray"></path></marker></defs><defs><marker orient="auto" markerHeight="18" markerWidth="18" refY="9" refX="18" id="ONLY_ONE_END"><path d="M3,0 L3,18 M9,0 L9,18" fill="none" stroke="gray"></path></marker></defs><defs><marker orient="auto" markerHeight="18" markerWidth="30" refY="9" refX="0" id="ZERO_OR_ONE_START"><circle r="6" cy="9" cx="21" fill="white" stroke="gray"></circle><path d="M9,0 L9,18" fill="none" stroke="gray"></path></marker></defs><defs><marker orient="auto" markerHeight="18" markerWidth="30" refY="9" refX="30" id="ZERO_OR_ONE_END"><circle r="6" cy="9" cx="9" fill="white" stroke="gray"></circle><path d="M21,0 L21,18" fill="none" stroke="gray"></path></marker></defs><defs><marker orient="auto" markerHeight="36" markerWidth="45" refY="18" refX="18" id="ONE_OR_MORE_START"><path d="M0,18 Q 18,0 36,18 Q 18,36 0,18 M42,9 L42,27" fill="none" stroke="gray"></path></marker></defs><defs><marker orient="auto" markerHeight="36" markerWidth="45" refY="18" refX="27" id="ONE_OR_MORE_END"><path d="M3,9 L3,27 M9,18 Q27,0 45,18 Q27,36 9,18" fill="none" stroke="gray"></path></marker></defs><defs><marker orient="auto" markerHeight="36" markerWidth="57" refY="18" refX="18" id="ZERO_OR_MORE_START"><circle r="6" cy="18" cx="48" fill="white" stroke="gray"></circle><path d="M0,18 Q18,0 36,18 Q18,36 0,18" fill="none" stroke="gray"></path></marker></defs><defs><marker orient="auto" markerHeight="36" markerWidth="57" refY="18" refX="39" id="ZERO_OR_MORE_END"><circle r="6" cy="18" cx="9" fill="white" stroke="gray"></circle><path d="M21,18 Q39,0 57,18 Q39,36 21,18" fill="none" stroke="gray"></path></marker></defs><path style="stroke: gray; fill: none;" marker-start="url(#ONLY_ONE_START)" marker-end="url(#ONE_OR_MORE_END)" d="M171.12416076660156,187.89599864597125L156.86278788248697,200.24666553830937C142.6014149983724,212.5973324306475,114.07866923014323,237.29866621532378,99.81729634602864,264.9826664409952C85.55592346191406,292.6666666666667,85.55592346191406,323.3333333333333,85.55592346191406,338.6666666666667L85.55592346191406,354" class="er relationshipLine"></path><path style="stroke: gray; fill: none;" marker-start="url(#ONLY_ONE_START)" marker-end="url(#ONLY_ONE_END)" d="M337.1614532470703,187.89599864597125L351.4228261311849,200.24666553830937C365.6841990152995,212.5973324306475,394.2069447835286,237.29866621532378,408.46831766764325,257.9826664409952C422.7296905517578,278.6666666666667,422.7296905517578,295.3333333333333,422.7296905517578,303.6666666666667L422.7296905517578,312" class="er relationshipLine"></path><g transform="translate(171.12416076660156,20 )" id="entity-Order-3ec22774-e93b-529c-bc12-1dfdb28f8e64"><rect height="192" width="166.03729248046875" y="0" x="0" class="er entityBox"></rect><text transform="translate(83.01864624023438,12)" style="dominant-baseline: middle; text-anchor: middle; font-size: 12px;" y="0" x="0" id="text-entity-Order-3ec22774-e93b-529c-bc12-1dfdb28f8e64" class="er entityLabel">Order</text><rect height="21" width="60.3360595703125" y="24" x="0" class="er attributeBoxOdd"></rect><text transform="translate(5,34.5)" style="dominant-baseline: middle; font-size: 10.2px;" y="0" x="0" id="text-entity-Order-3ec22774-e93b-529c-bc12-1dfdb28f8e64-attr-1-type" class="er entityLabel">long</text><rect height="21" width="81.90625" y="24" x="60.3360595703125" class="er attributeBoxOdd"></rect><text transform="translate(65.3360595703125,34.5)" style="dominant-baseline: middle; font-size: 10.2px;" y="0" x="0" id="text-entity-Order-3ec22774-e93b-529c-bc12-1dfdb28f8e64-attr-1-name" class="er entityLabel">id</text><rect height="21" width="23.79498291015625" y="24" x="142.2423095703125" class="er attributeBoxOdd"></rect><text transform="translate(147.2423095703125,34.5)" style="dominant-baseline: middle; font-size: 10.2px;" y="0" x="0" id="text-entity-Order-3ec22774-e93b-529c-bc12-1dfdb28f8e64-attr-1-key" class="er entityLabel">PK</text><rect height="21" width="60.3360595703125" y="45" x="0" class="er attributeBoxEven"></rect><text transform="translate(5,55.5)" style="dominant-baseline: middle; font-size: 10.2px;" y="0" x="0" id="text-entity-Order-3ec22774-e93b-529c-bc12-1dfdb28f8e64-attr-2-type" class="er entityLabel">Timestamp</text><rect height="21" width="81.90625" y="45" x="60.3360595703125" class="er attributeBoxEven"></rect><text transform="translate(65.3360595703125,55.5)" style="dominant-baseline: middle; font-size: 10.2px;" y="0" x="0" id="text-entity-Order-3ec22774-e93b-529c-bc12-1dfdb28f8e64-attr-2-name" class="er entityLabel">order_date</text><rect height="21" width="23.79498291015625" y="45" x="142.2423095703125" class="er attributeBoxEven"></rect><text transform="translate(147.2423095703125,55.5)" style="dominant-baseline: middle; font-size: 10.2px;" y="0" x="0" id="text-entity-Order-3ec22774-e93b-529c-bc12-1dfdb28f8e64-attr-2-key" class="er entityLabel"></text><rect height="21" width="60.3360595703125" y="66" x="0" class="er attributeBoxOdd"></rect><text transform="translate(5,76.5)" style="dominant-baseline: middle; font-size: 10.2px;" y="0" x="0" id="text-entity-Order-3ec22774-e93b-529c-bc12-1dfdb28f8e64-attr-3-type" class="er entityLabel">float</text><rect height="21" width="81.90625" y="66" x="60.3360595703125" class="er attributeBoxOdd"></rect><text transform="translate(65.3360595703125,76.5)" style="dominant-baseline: middle; font-size: 10.2px;" y="0" x="0" id="text-entity-Order-3ec22774-e93b-529c-bc12-1dfdb28f8e64-attr-3-name" class="er entityLabel">total_price</text><rect height="21" width="23.79498291015625" y="66" x="142.2423095703125" class="er attributeBoxOdd"></rect><text transform="translate(147.2423095703125,76.5)" style="dominant-baseline: middle; font-size: 10.2px;" y="0" x="0" id="text-entity-Order-3ec22774-e93b-529c-bc12-1dfdb28f8e64-attr-3-key" class="er entityLabel"></text><rect height="21" width="60.3360595703125" y="87" x="0" class="er attributeBoxEven"></rect><text transform="translate(5,97.5)" style="dominant-baseline: middle; font-size: 10.2px;" y="0" x="0" id="text-entity-Order-3ec22774-e93b-529c-bc12-1dfdb28f8e64-attr-4-type" class="er entityLabel">string</text><rect height="21" width="81.90625" y="87" x="60.3360595703125" class="er attributeBoxEven"></rect><text transform="translate(65.3360595703125,97.5)" style="dominant-baseline: middle; font-size: 10.2px;" y="0" x="0" id="text-entity-Order-3ec22774-e93b-529c-bc12-1dfdb28f8e64-attr-4-name" class="er entityLabel">coupon_code</text><rect height="21" width="23.79498291015625" y="87" x="142.2423095703125" class="er attributeBoxEven"></rect><text transform="translate(147.2423095703125,97.5)" style="dominant-baseline: middle; font-size: 10.2px;" y="0" x="0" id="text-entity-Order-3ec22774-e93b-529c-bc12-1dfdb28f8e64-attr-4-key" class="er entityLabel"></text><rect height="21" width="60.3360595703125" y="108" x="0" class="er attributeBoxOdd"></rect><text transform="translate(5,118.5)" style="dominant-baseline: middle; font-size: 10.2px;" y="0" x="0" id="text-entity-Order-3ec22774-e93b-529c-bc12-1dfdb28f8e64-attr-5-type" class="er entityLabel">int</text><rect height="21" width="81.90625" y="108" x="60.3360595703125" class="er attributeBoxOdd"></rect><text transform="translate(65.3360595703125,118.5)" style="dominant-baseline: middle; font-size: 10.2px;" y="0" x="0" id="text-entity-Order-3ec22774-e93b-529c-bc12-1dfdb28f8e64-attr-5-name" class="er entityLabel">coupon_value</text><rect height="21" width="23.79498291015625" y="108" x="142.2423095703125" class="er attributeBoxOdd"></rect><text transform="translate(147.2423095703125,118.5)" style="dominant-baseline: middle; font-size: 10.2px;" y="0" x="0" id="text-entity-Order-3ec22774-e93b-529c-bc12-1dfdb28f8e64-attr-5-key" class="er entityLabel"></text><rect height="21" width="60.3360595703125" y="129" x="0" class="er attributeBoxEven"></rect><text transform="translate(5,139.5)" style="dominant-baseline: middle; font-size: 10.2px;" y="0" x="0" id="text-entity-Order-3ec22774-e93b-529c-bc12-1dfdb28f8e64-attr-6-type" class="er entityLabel">float</text><rect height="21" width="81.90625" y="129" x="60.3360595703125" class="er attributeBoxEven"></rect><text transform="translate(65.3360595703125,139.5)" style="dominant-baseline: middle; font-size: 10.2px;" y="0" x="0" id="text-entity-Order-3ec22774-e93b-529c-bc12-1dfdb28f8e64-attr-6-name" class="er entityLabel">paied_price</text><rect height="21" width="23.79498291015625" y="129" x="142.2423095703125" class="er attributeBoxEven"></rect><text transform="translate(147.2423095703125,139.5)" style="dominant-baseline: middle; font-size: 10.2px;" y="0" x="0" id="text-entity-Order-3ec22774-e93b-529c-bc12-1dfdb28f8e64-attr-6-key" class="er entityLabel"></text><rect height="21" width="60.3360595703125" y="150" x="0" class="er attributeBoxOdd"></rect><text transform="translate(5,160.5)" style="dominant-baseline: middle; font-size: 10.2px;" y="0" x="0" id="text-entity-Order-3ec22774-e93b-529c-bc12-1dfdb28f8e64-attr-7-type" class="er entityLabel">long</text><rect height="21" width="81.90625" y="150" x="60.3360595703125" class="er attributeBoxOdd"></rect><text transform="translate(65.3360595703125,160.5)" style="dominant-baseline: middle; font-size: 10.2px;" y="0" x="0" id="text-entity-Order-3ec22774-e93b-529c-bc12-1dfdb28f8e64-attr-7-name" class="er entityLabel">shipment_id</text><rect height="21" width="23.79498291015625" y="150" x="142.2423095703125" class="er attributeBoxOdd"></rect><text transform="translate(147.2423095703125,160.5)" style="dominant-baseline: middle; font-size: 10.2px;" y="0" x="0" id="text-entity-Order-3ec22774-e93b-529c-bc12-1dfdb28f8e64-attr-7-key" class="er entityLabel">FK</text><rect height="21" width="60.3360595703125" y="171" x="0" class="er attributeBoxEven"></rect><text transform="translate(5,181.5)" style="dominant-baseline: middle; font-size: 10.2px;" y="0" x="0" id="text-entity-Order-3ec22774-e93b-529c-bc12-1dfdb28f8e64-attr-8-type" class="er entityLabel">string</text><rect height="21" width="81.90625" y="171" x="60.3360595703125" class="er attributeBoxEven"></rect><text transform="translate(65.3360595703125,181.5)" style="dominant-baseline: middle; font-size: 10.2px;" y="0" x="0" id="text-entity-Order-3ec22774-e93b-529c-bc12-1dfdb28f8e64-attr-8-name" class="er entityLabel">customer_email</text><rect height="21" width="23.79498291015625" y="171" x="142.2423095703125" class="er attributeBoxEven"></rect><text transform="translate(147.2423095703125,181.5)" style="dominant-baseline: middle; font-size: 10.2px;" y="0" x="0" id="text-entity-Order-3ec22774-e93b-529c-bc12-1dfdb28f8e64-attr-8-key" class="er entityLabel">FK</text></g><g transform="translate(20,354 )" id="entity-OrderItem-f4d4d599-feaa-5932-bb05-47228871814e"><rect height="150" width="131.11184692382812" y="0" x="0" class="er entityBox"></rect><text transform="translate(65.55592346191406,12)" style="dominant-baseline: middle; text-anchor: middle; font-size: 12px;" y="0" x="0" id="text-entity-OrderItem-f4d4d599-feaa-5932-bb05-47228871814e" class="er entityLabel">Order_Item</text><rect height="21" width="35.245819091796875" y="24" x="0" class="er attributeBoxOdd"></rect><text transform="translate(5,34.5)" style="dominant-baseline: middle; font-size: 10.2px;" y="0" x="0" id="text-entity-OrderItem-f4d4d599-feaa-5932-bb05-47228871814e-attr-1-type" class="er entityLabel">long</text><rect height="21" width="72.071044921875" y="24" x="35.245819091796875" class="er attributeBoxOdd"></rect><text transform="translate(40.245819091796875,34.5)" style="dominant-baseline: middle; font-size: 10.2px;" y="0" x="0" id="text-entity-OrderItem-f4d4d599-feaa-5932-bb05-47228871814e-attr-1-name" class="er entityLabel">id</text><rect height="21" width="23.79498291015625" y="24" x="107.31686401367188" class="er attributeBoxOdd"></rect><text transform="translate(112.31686401367188,34.5)" style="dominant-baseline: middle; font-size: 10.2px;" y="0" x="0" id="text-entity-OrderItem-f4d4d599-feaa-5932-bb05-47228871814e-attr-1-key" class="er entityLabel">PK</text><rect height="21" width="35.245819091796875" y="45" x="0" class="er attributeBoxEven"></rect><text transform="translate(5,55.5)" style="dominant-baseline: middle; font-size: 10.2px;" y="0" x="0" id="text-entity-OrderItem-f4d4d599-feaa-5932-bb05-47228871814e-attr-2-type" class="er entityLabel">long</text><rect height="21" width="72.071044921875" y="45" x="35.245819091796875" class="er attributeBoxEven"></rect><text transform="translate(40.245819091796875,55.5)" style="dominant-baseline: middle; font-size: 10.2px;" y="0" x="0" id="text-entity-OrderItem-f4d4d599-feaa-5932-bb05-47228871814e-attr-2-name" class="er entityLabel">order_id</text><rect height="21" width="23.79498291015625" y="45" x="107.31686401367188" class="er attributeBoxEven"></rect><text transform="translate(112.31686401367188,55.5)" style="dominant-baseline: middle; font-size: 10.2px;" y="0" x="0" id="text-entity-OrderItem-f4d4d599-feaa-5932-bb05-47228871814e-attr-2-key" class="er entityLabel">FK</text><rect height="21" width="35.245819091796875" y="66" x="0" class="er attributeBoxOdd"></rect><text transform="translate(5,76.5)" style="dominant-baseline: middle; font-size: 10.2px;" y="0" x="0" id="text-entity-OrderItem-f4d4d599-feaa-5932-bb05-47228871814e-attr-3-type" class="er entityLabel">string</text><rect height="21" width="72.071044921875" y="66" x="35.245819091796875" class="er attributeBoxOdd"></rect><text transform="translate(40.245819091796875,76.5)" style="dominant-baseline: middle; font-size: 10.2px;" y="0" x="0" id="text-entity-OrderItem-f4d4d599-feaa-5932-bb05-47228871814e-attr-3-name" class="er entityLabel">product_code</text><rect height="21" width="23.79498291015625" y="66" x="107.31686401367188" class="er attributeBoxOdd"></rect><text transform="translate(112.31686401367188,76.5)" style="dominant-baseline: middle; font-size: 10.2px;" y="0" x="0" id="text-entity-OrderItem-f4d4d599-feaa-5932-bb05-47228871814e-attr-3-key" class="er entityLabel">FK</text><rect height="21" width="35.245819091796875" y="87" x="0" class="er attributeBoxEven"></rect><text transform="translate(5,97.5)" style="dominant-baseline: middle; font-size: 10.2px;" y="0" x="0" id="text-entity-OrderItem-f4d4d599-feaa-5932-bb05-47228871814e-attr-4-type" class="er entityLabel">int</text><rect height="21" width="72.071044921875" y="87" x="35.245819091796875" class="er attributeBoxEven"></rect><text transform="translate(40.245819091796875,97.5)" style="dominant-baseline: middle; font-size: 10.2px;" y="0" x="0" id="text-entity-OrderItem-f4d4d599-feaa-5932-bb05-47228871814e-attr-4-name" class="er entityLabel">Store_id</text><rect height="21" width="23.79498291015625" y="87" x="107.31686401367188" class="er attributeBoxEven"></rect><text transform="translate(112.31686401367188,97.5)" style="dominant-baseline: middle; font-size: 10.2px;" y="0" x="0" id="text-entity-OrderItem-f4d4d599-feaa-5932-bb05-47228871814e-attr-4-key" class="er entityLabel">FK</text><rect height="21" width="35.245819091796875" y="108" x="0" class="er attributeBoxOdd"></rect><text transform="translate(5,118.5)" style="dominant-baseline: middle; font-size: 10.2px;" y="0" x="0" id="text-entity-OrderItem-f4d4d599-feaa-5932-bb05-47228871814e-attr-5-type" class="er entityLabel">int</text><rect height="21" width="72.071044921875" y="108" x="35.245819091796875" class="er attributeBoxOdd"></rect><text transform="translate(40.245819091796875,118.5)" style="dominant-baseline: middle; font-size: 10.2px;" y="0" x="0" id="text-entity-OrderItem-f4d4d599-feaa-5932-bb05-47228871814e-attr-5-name" class="er entityLabel">quantity</text><rect height="21" width="23.79498291015625" y="108" x="107.31686401367188" class="er attributeBoxOdd"></rect><text transform="translate(112.31686401367188,118.5)" style="dominant-baseline: middle; font-size: 10.2px;" y="0" x="0" id="text-entity-OrderItem-f4d4d599-feaa-5932-bb05-47228871814e-attr-5-key" class="er entityLabel"></text><rect height="21" width="35.245819091796875" y="129" x="0" class="er attributeBoxEven"></rect><text transform="translate(5,139.5)" style="dominant-baseline: middle; font-size: 10.2px;" y="0" x="0" id="text-entity-OrderItem-f4d4d599-feaa-5932-bb05-47228871814e-attr-6-type" class="er entityLabel">float</text><rect height="21" width="72.071044921875" y="129" x="35.245819091796875" class="er attributeBoxEven"></rect><text transform="translate(40.245819091796875,139.5)" style="dominant-baseline: middle; font-size: 10.2px;" y="0" x="0" id="text-entity-OrderItem-f4d4d599-feaa-5932-bb05-47228871814e-attr-6-name" class="er entityLabel">price</text><rect height="21" width="23.79498291015625" y="129" x="107.31686401367188" class="er attributeBoxEven"></rect><text transform="translate(112.31686401367188,139.5)" style="dominant-baseline: middle; font-size: 10.2px;" y="0" x="0" id="text-entity-OrderItem-f4d4d599-feaa-5932-bb05-47228871814e-attr-6-key" class="er entityLabel"></text></g><g transform="translate(251.11184692382812,312 )" id="entity-Shipment-c44505c0-f3b0-5b85-b8d9-0020f1e395c2"><rect height="234" width="343.2356872558594" y="0" x="0" class="er entityBox"></rect><text transform="translate(171.6178436279297,12)" style="dominant-baseline: middle; text-anchor: middle; font-size: 12px;" y="0" x="0" id="text-entity-Shipment-c44505c0-f3b0-5b85-b8d9-0020f1e395c2" class="er entityLabel">Shipment</text><rect height="21" width="60.3360595703125" y="24" x="0" class="er attributeBoxOdd"></rect><text transform="translate(5,34.5)" style="dominant-baseline: middle; font-size: 10.2px;" y="0" x="0" id="text-entity-Shipment-c44505c0-f3b0-5b85-b8d9-0020f1e395c2-attr-1-type" class="er entityLabel">long</text><rect height="21" width="77.164794921875" y="24" x="60.3360595703125" class="er attributeBoxOdd"></rect><text transform="translate(65.3360595703125,34.5)" style="dominant-baseline: middle; font-size: 10.2px;" y="0" x="0" id="text-entity-Shipment-c44505c0-f3b0-5b85-b8d9-0020f1e395c2-attr-1-name" class="er entityLabel">id</text><rect height="21" width="23.79498291015625" y="24" x="137.5008544921875" class="er attributeBoxOdd"></rect><text transform="translate(142.5008544921875,34.5)" style="dominant-baseline: middle; font-size: 10.2px;" y="0" x="0" id="text-entity-Shipment-c44505c0-f3b0-5b85-b8d9-0020f1e395c2-attr-1-key" class="er entityLabel">PK</text><rect height="21" width="181.93984985351562" y="24" x="161.29583740234375" class="er attributeBoxOdd"></rect><text transform="translate(166.29583740234375,34.5)" style="dominant-baseline: middle; font-size: 10.2px;" y="0" x="0" id="text-entity-Shipment-c44505c0-f3b0-5b85-b8d9-0020f1e395c2-attr-1-comment" class="er entityLabel"></text><rect height="21" width="60.3360595703125" y="45" x="0" class="er attributeBoxEven"></rect><text transform="translate(5,55.5)" style="dominant-baseline: middle; font-size: 10.2px;" y="0" x="0" id="text-entity-Shipment-c44505c0-f3b0-5b85-b8d9-0020f1e395c2-attr-2-type" class="er entityLabel">long</text><rect height="21" width="77.164794921875" y="45" x="60.3360595703125" class="er attributeBoxEven"></rect><text transform="translate(65.3360595703125,55.5)" style="dominant-baseline: middle; font-size: 10.2px;" y="0" x="0" id="text-entity-Shipment-c44505c0-f3b0-5b85-b8d9-0020f1e395c2-attr-2-name" class="er entityLabel">order_id</text><rect height="21" width="23.79498291015625" y="45" x="137.5008544921875" class="er attributeBoxEven"></rect><text transform="translate(142.5008544921875,55.5)" style="dominant-baseline: middle; font-size: 10.2px;" y="0" x="0" id="text-entity-Shipment-c44505c0-f3b0-5b85-b8d9-0020f1e395c2-attr-2-key" class="er entityLabel">FK</text><rect height="21" width="181.93984985351562" y="45" x="161.29583740234375" class="er attributeBoxEven"></rect><text transform="translate(166.29583740234375,55.5)" style="dominant-baseline: middle; font-size: 10.2px;" y="0" x="0" id="text-entity-Shipment-c44505c0-f3b0-5b85-b8d9-0020f1e395c2-attr-2-comment" class="er entityLabel"></text><rect height="21" width="60.3360595703125" y="66" x="0" class="er attributeBoxOdd"></rect><text transform="translate(5,76.5)" style="dominant-baseline: middle; font-size: 10.2px;" y="0" x="0" id="text-entity-Shipment-c44505c0-f3b0-5b85-b8d9-0020f1e395c2-attr-3-type" class="er entityLabel">long</text><rect height="21" width="77.164794921875" y="66" x="60.3360595703125" class="er attributeBoxOdd"></rect><text transform="translate(65.3360595703125,76.5)" style="dominant-baseline: middle; font-size: 10.2px;" y="0" x="0" id="text-entity-Shipment-c44505c0-f3b0-5b85-b8d9-0020f1e395c2-attr-3-name" class="er entityLabel">Customer_id</text><rect height="21" width="23.79498291015625" y="66" x="137.5008544921875" class="er attributeBoxOdd"></rect><text transform="translate(142.5008544921875,76.5)" style="dominant-baseline: middle; font-size: 10.2px;" y="0" x="0" id="text-entity-Shipment-c44505c0-f3b0-5b85-b8d9-0020f1e395c2-attr-3-key" class="er entityLabel">FK</text><rect height="21" width="181.93984985351562" y="66" x="161.29583740234375" class="er attributeBoxOdd"></rect><text transform="translate(166.29583740234375,76.5)" style="dominant-baseline: middle; font-size: 10.2px;" y="0" x="0" id="text-entity-Shipment-c44505c0-f3b0-5b85-b8d9-0020f1e395c2-attr-3-comment" class="er entityLabel"></text><rect height="21" width="60.3360595703125" y="87" x="0" class="er attributeBoxEven"></rect><text transform="translate(5,97.5)" style="dominant-baseline: middle; font-size: 10.2px;" y="0" x="0" id="text-entity-Shipment-c44505c0-f3b0-5b85-b8d9-0020f1e395c2-attr-4-type" class="er entityLabel">int</text><rect height="21" width="77.164794921875" y="87" x="60.3360595703125" class="er attributeBoxEven"></rect><text transform="translate(65.3360595703125,97.5)" style="dominant-baseline: middle; font-size: 10.2px;" y="0" x="0" id="text-entity-Shipment-c44505c0-f3b0-5b85-b8d9-0020f1e395c2-attr-4-name" class="er entityLabel">strore_id</text><rect height="21" width="23.79498291015625" y="87" x="137.5008544921875" class="er attributeBoxEven"></rect><text transform="translate(142.5008544921875,97.5)" style="dominant-baseline: middle; font-size: 10.2px;" y="0" x="0" id="text-entity-Shipment-c44505c0-f3b0-5b85-b8d9-0020f1e395c2-attr-4-key" class="er entityLabel">FK</text><rect height="21" width="181.93984985351562" y="87" x="161.29583740234375" class="er attributeBoxEven"></rect><text transform="translate(166.29583740234375,97.5)" style="dominant-baseline: middle; font-size: 10.2px;" y="0" x="0" id="text-entity-Shipment-c44505c0-f3b0-5b85-b8d9-0020f1e395c2-attr-4-comment" class="er entityLabel"></text><rect height="21" width="60.3360595703125" y="108" x="0" class="er attributeBoxOdd"></rect><text transform="translate(5,118.5)" style="dominant-baseline: middle; font-size: 10.2px;" y="0" x="0" id="text-entity-Shipment-c44505c0-f3b0-5b85-b8d9-0020f1e395c2-attr-5-type" class="er entityLabel">Timestamp</text><rect height="21" width="77.164794921875" y="108" x="60.3360595703125" class="er attributeBoxOdd"></rect><text transform="translate(65.3360595703125,118.5)" style="dominant-baseline: middle; font-size: 10.2px;" y="0" x="0" id="text-entity-Shipment-c44505c0-f3b0-5b85-b8d9-0020f1e395c2-attr-5-name" class="er entityLabel">shipment_date</text><rect height="21" width="23.79498291015625" y="108" x="137.5008544921875" class="er attributeBoxOdd"></rect><text transform="translate(142.5008544921875,118.5)" style="dominant-baseline: middle; font-size: 10.2px;" y="0" x="0" id="text-entity-Shipment-c44505c0-f3b0-5b85-b8d9-0020f1e395c2-attr-5-key" class="er entityLabel"></text><rect height="21" width="181.93984985351562" y="108" x="161.29583740234375" class="er attributeBoxOdd"></rect><text transform="translate(166.29583740234375,118.5)" style="dominant-baseline: middle; font-size: 10.2px;" y="0" x="0" id="text-entity-Shipment-c44505c0-f3b0-5b85-b8d9-0020f1e395c2-attr-5-comment" class="er entityLabel"></text><rect height="21" width="60.3360595703125" y="129" x="0" class="er attributeBoxEven"></rect><text transform="translate(5,139.5)" style="dominant-baseline: middle; font-size: 10.2px;" y="0" x="0" id="text-entity-Shipment-c44505c0-f3b0-5b85-b8d9-0020f1e395c2-attr-6-type" class="er entityLabel">enum</text><rect height="21" width="77.164794921875" y="129" x="60.3360595703125" class="er attributeBoxEven"></rect><text transform="translate(65.3360595703125,139.5)" style="dominant-baseline: middle; font-size: 10.2px;" y="0" x="0" id="text-entity-Shipment-c44505c0-f3b0-5b85-b8d9-0020f1e395c2-attr-6-name" class="er entityLabel">status</text><rect height="21" width="23.79498291015625" y="129" x="137.5008544921875" class="er attributeBoxEven"></rect><text transform="translate(142.5008544921875,139.5)" style="dominant-baseline: middle; font-size: 10.2px;" y="0" x="0" id="text-entity-Shipment-c44505c0-f3b0-5b85-b8d9-0020f1e395c2-attr-6-key" class="er entityLabel"></text><rect height="21" width="181.93984985351562" y="129" x="161.29583740234375" class="er attributeBoxEven"></rect><text transform="translate(166.29583740234375,139.5)" style="dominant-baseline: middle; font-size: 10.2px;" y="0" x="0" id="text-entity-Shipment-c44505c0-f3b0-5b85-b8d9-0020f1e395c2-attr-6-comment" class="er entityLabel">Pending,Shipping,Delieverd,Canceled</text><rect height="21" width="60.3360595703125" y="150" x="0" class="er attributeBoxOdd"></rect><text transform="translate(5,160.5)" style="dominant-baseline: middle; font-size: 10.2px;" y="0" x="0" id="text-entity-Shipment-c44505c0-f3b0-5b85-b8d9-0020f1e395c2-attr-7-type" class="er entityLabel">string</text><rect height="21" width="77.164794921875" y="150" x="60.3360595703125" class="er attributeBoxOdd"></rect><text transform="translate(65.3360595703125,160.5)" style="dominant-baseline: middle; font-size: 10.2px;" y="0" x="0" id="text-entity-Shipment-c44505c0-f3b0-5b85-b8d9-0020f1e395c2-attr-7-name" class="er entityLabel">country</text><rect height="21" width="23.79498291015625" y="150" x="137.5008544921875" class="er attributeBoxOdd"></rect><text transform="translate(142.5008544921875,160.5)" style="dominant-baseline: middle; font-size: 10.2px;" y="0" x="0" id="text-entity-Shipment-c44505c0-f3b0-5b85-b8d9-0020f1e395c2-attr-7-key" class="er entityLabel"></text><rect height="21" width="181.93984985351562" y="150" x="161.29583740234375" class="er attributeBoxOdd"></rect><text transform="translate(166.29583740234375,160.5)" style="dominant-baseline: middle; font-size: 10.2px;" y="0" x="0" id="text-entity-Shipment-c44505c0-f3b0-5b85-b8d9-0020f1e395c2-attr-7-comment" class="er entityLabel"></text><rect height="21" width="60.3360595703125" y="171" x="0" class="er attributeBoxEven"></rect><text transform="translate(5,181.5)" style="dominant-baseline: middle; font-size: 10.2px;" y="0" x="0" id="text-entity-Shipment-c44505c0-f3b0-5b85-b8d9-0020f1e395c2-attr-8-type" class="er entityLabel">string</text><rect height="21" width="77.164794921875" y="171" x="60.3360595703125" class="er attributeBoxEven"></rect><text transform="translate(65.3360595703125,181.5)" style="dominant-baseline: middle; font-size: 10.2px;" y="0" x="0" id="text-entity-Shipment-c44505c0-f3b0-5b85-b8d9-0020f1e395c2-attr-8-name" class="er entityLabel">state</text><rect height="21" width="23.79498291015625" y="171" x="137.5008544921875" class="er attributeBoxEven"></rect><text transform="translate(142.5008544921875,181.5)" style="dominant-baseline: middle; font-size: 10.2px;" y="0" x="0" id="text-entity-Shipment-c44505c0-f3b0-5b85-b8d9-0020f1e395c2-attr-8-key" class="er entityLabel"></text><rect height="21" width="181.93984985351562" y="171" x="161.29583740234375" class="er attributeBoxEven"></rect><text transform="translate(166.29583740234375,181.5)" style="dominant-baseline: middle; font-size: 10.2px;" y="0" x="0" id="text-entity-Shipment-c44505c0-f3b0-5b85-b8d9-0020f1e395c2-attr-8-comment" class="er entityLabel"></text><rect height="21" width="60.3360595703125" y="192" x="0" class="er attributeBoxOdd"></rect><text transform="translate(5,202.5)" style="dominant-baseline: middle; font-size: 10.2px;" y="0" x="0" id="text-entity-Shipment-c44505c0-f3b0-5b85-b8d9-0020f1e395c2-attr-9-type" class="er entityLabel">string</text><rect height="21" width="77.164794921875" y="192" x="60.3360595703125" class="er attributeBoxOdd"></rect><text transform="translate(65.3360595703125,202.5)" style="dominant-baseline: middle; font-size: 10.2px;" y="0" x="0" id="text-entity-Shipment-c44505c0-f3b0-5b85-b8d9-0020f1e395c2-attr-9-name" class="er entityLabel">city</text><rect height="21" width="23.79498291015625" y="192" x="137.5008544921875" class="er attributeBoxOdd"></rect><text transform="translate(142.5008544921875,202.5)" style="dominant-baseline: middle; font-size: 10.2px;" y="0" x="0" id="text-entity-Shipment-c44505c0-f3b0-5b85-b8d9-0020f1e395c2-attr-9-key" class="er entityLabel"></text><rect height="21" width="181.93984985351562" y="192" x="161.29583740234375" class="er attributeBoxOdd"></rect><text transform="translate(166.29583740234375,202.5)" style="dominant-baseline: middle; font-size: 10.2px;" y="0" x="0" id="text-entity-Shipment-c44505c0-f3b0-5b85-b8d9-0020f1e395c2-attr-9-comment" class="er entityLabel"></text><rect height="21" width="60.3360595703125" y="213" x="0" class="er attributeBoxEven"></rect><text transform="translate(5,223.5)" style="dominant-baseline: middle; font-size: 10.2px;" y="0" x="0" id="text-entity-Shipment-c44505c0-f3b0-5b85-b8d9-0020f1e395c2-attr-10-type" class="er entityLabel">string</text><rect height="21" width="77.164794921875" y="213" x="60.3360595703125" class="er attributeBoxEven"></rect><text transform="translate(65.3360595703125,223.5)" style="dominant-baseline: middle; font-size: 10.2px;" y="0" x="0" id="text-entity-Shipment-c44505c0-f3b0-5b85-b8d9-0020f1e395c2-attr-10-name" class="er entityLabel">address_line</text><rect height="21" width="23.79498291015625" y="213" x="137.5008544921875" class="er attributeBoxEven"></rect><text transform="translate(142.5008544921875,223.5)" style="dominant-baseline: middle; font-size: 10.2px;" y="0" x="0" id="text-entity-Shipment-c44505c0-f3b0-5b85-b8d9-0020f1e395c2-attr-10-key" class="er entityLabel"></text><rect height="21" width="181.93984985351562" y="213" x="161.29583740234375" class="er attributeBoxEven"></rect><text transform="translate(166.29583740234375,223.5)" style="dominant-baseline: middle; font-size: 10.2px;" y="0" x="0" id="text-entity-Shipment-c44505c0-f3b0-5b85-b8d9-0020f1e395c2-attr-10-comment" class="er entityLabel"></text></g><rect height="14" width="44.703125" y="251.64224243164062" x="81.0025634765625" class="er relationshipLabelBox"></rect><text style="text-anchor: middle; dominant-baseline: middle; font-size: 12px;" y="258.6422424316406" x="103.3541259765625" id="rel11" class="er relationshipLabel">contains</text><rect height="14" width="19.359375" y="234.22967529296875" x="385.1892395019531" class="er relationshipLabelBox"></rect><text style="text-anchor: middle; dominant-baseline: middle; font-size: 12px;" y="241.22967529296875" x="394.8689270019531" id="rel12" class="er relationshipLabel">has</text></svg>